<?xml version="1.0" encoding="UTF-8" standalone="no"?>
<svg
   version="1.1"
   width="512px"
   height="512px"
   style="shape-rendering:geometricPrecision; text-rendering:geometricPrecision; image-rendering:optimizeQuality; fill-rule:evenodd; clip-rule:evenodd"
   id="svg32"
   sodipodi:docname="1.svg"
   inkscape:version="1.3.2 (091e20e, 2023-11-25, custom)"
   xmlns:inkscape="http://www.inkscape.org/namespaces/inkscape"
   xmlns:sodipodi="http://sodipodi.sourceforge.net/DTD/sodipodi-0.dtd"
   xmlns="http://www.w3.org/2000/svg"
   xmlns:svg="http://www.w3.org/2000/svg">
  <defs
     id="defs32" />
  <sodipodi:namedview
     id="namedview32"
     pagecolor="#ffffff"
     bordercolor="#000000"
     borderopacity="0.25"
     inkscape:showpageshadow="2"
     inkscape:pageopacity="0.0"
     inkscape:pagecheckerboard="0"
     inkscape:deskcolor="#d1d1d1"
     showgrid="false"
     inkscape:zoom="1.5878906"
     inkscape:cx="262.61255"
     inkscape:cy="227.03075"
     inkscape:window-width="1920"
     inkscape:window-height="1009"
     inkscape:window-x="1912"
     inkscape:window-y="-8"
     inkscape:window-maximized="1"
     inkscape:current-layer="svg32" />
  <g
     id="g2">
    <path
       style="opacity:1"
       fill="#39b6ff"
       d="M 231.5,9.5 C 321.313,3.81436 388.813,39.481 434,116.5C 465.253,178.795 465.253,241.128 434,303.5C 408.198,360.283 372.698,410.116 327.5,453C 305.705,472.401 281.705,488.567 255.5,501.5C 229.295,488.567 205.295,472.401 183.5,453C 125.184,397.568 83.6839,331.401 59,254.5C 43.8443,175.633 66.011,109.466 125.5,56C 156.528,30.7118 191.862,15.2118 231.5,9.5 Z"
       id="path2" />
  </g>
  <g
     id="g3">
    <path
       style="opacity:1"
       fill="#f9fcff"
       d="M 268.5,213.5 C 267.518,216.962 267.185,220.629 267.5,224.5C 272.833,224.5 278.167,224.5 283.5,224.5C 286.044,224.104 288.211,224.771 290,226.5C 290.499,232.157 290.666,237.824 290.5,243.5C 295.844,243.334 301.177,243.501 306.5,244C 309.295,245.793 311.795,247.96 314,250.5C 314.667,277.5 314.667,304.5 314,331.5C 312.474,335.693 309.641,338.526 305.5,340C 271.5,340.667 237.5,340.667 203.5,340C 200.527,338.235 198.36,335.735 197,332.5C 196.333,305.167 196.333,277.833 197,250.5C 198.5,247.667 200.667,245.5 203.5,244C 208.823,243.501 214.156,243.334 219.5,243.5C 219.334,238.156 219.501,232.823 220,227.5C 220.374,226.584 220.874,225.75 221.5,225C 223.473,224.505 225.473,224.338 227.5,224.5C 232.833,224.5 238.167,224.5 243.5,224.5C 243.815,220.629 243.482,216.962 242.5,213.5C 199.38,202.199 178.547,174.199 180,129.5C 186.357,93.8076 207.19,71.6409 242.5,63C 280.375,59.845 307.875,75.0117 325,108.5C 337.342,143.299 329.842,173.132 302.5,198C 292.299,205.6 280.965,210.767 268.5,213.5 Z"
       id="path3" />
  </g>
  <g
     id="g4">
    <path
       style="opacity:1"
       fill="#3fb7ff"
       d="M 243.5,69.5 C 280.784,66.7092 306.617,82.3759 321,116.5C 330.27,155.117 317.436,183.617 282.5,202C 242.502,214.894 212.335,203.061 192,166.5C 179.507,131.987 187.674,103.487 216.5,81C 225.058,75.8779 234.058,72.0446 243.5,69.5 Z"
       id="path4" />
  </g>
  <g
     id="g5">
    <path
       style="opacity:1"
       fill="#f8fcff"
       d="M 249.5,80.5 C 281.803,80.3893 302.637,95.7226 312,126.5C 315.508,161.954 300.342,184.788 266.5,195C 229.833,198.329 207,182.162 198,146.5C 196.73,110.013 213.897,88.0131 249.5,80.5 Z"
       id="path5" />
  </g>
  <g
     id="g6">
    <path
       style="opacity:1"
       fill="#3db7ff"
       d="M 242.5,88.5 C 272.106,84.5443 292.606,96.211 304,123.5C 310.032,153.943 298.865,175.109 270.5,187C 238.771,193.555 217.271,181.722 206,151.5C 201.174,120.469 213.341,99.4686 242.5,88.5 Z"
       id="path6" />
  </g>
  <g
     id="g7">
    <path
       style="opacity:1"
       fill="#f5fbff"
       d="M 253.5,92.5 C 255.144,92.2865 256.644,92.6198 258,93.5C 258.667,97.5 258.667,101.5 258,105.5C 255.478,108.326 253.478,107.993 252,104.5C 250.994,100.198 251.494,96.1985 253.5,92.5 Z"
       id="path7" />
  </g>
  <g
     id="g8">
    <path
       style="opacity:1"
       fill="#f8fcff"
       d="M 237.5,95.5 C 238.822,95.33 239.989,95.6634 241,96.5C 242.333,99.1667 243.667,101.833 245,104.5C 245.5,108 244,109.5 240.5,109C 236.365,104.858 235.365,100.358 237.5,95.5 Z"
       id="path8" />
  </g>
  <g
     id="g9">
    <path
       style="opacity:1"
       fill="#f9fcff"
       d="M 270.5,95.5 C 272.912,95.244 274.579,96.244 275.5,98.5C 274.039,101.382 272.873,104.382 272,107.5C 268.84,110.501 266.674,110.001 265.5,106C 266.508,102.152 268.175,98.6517 270.5,95.5 Z"
       id="path9" />
  </g>
  <g
     id="g10">
    <path
       style="opacity:1"
       fill="#f4faff"
       d="M 223.5,104.5 C 227.302,105.779 230.469,108.112 233,111.5C 233.743,113.441 233.576,115.274 232.5,117C 227.139,116.326 223.473,113.326 221.5,108C 221.978,106.697 222.645,105.531 223.5,104.5 Z"
       id="path10" />
  </g>
  <g
     id="g11">
    <path
       style="opacity:1"
       fill="#f8fcff"
       d="M 284.5,104.5 C 288.225,104.78 289.392,106.78 288,110.5C 285.603,113.4 282.77,115.733 279.5,117.5C 277.054,116.573 276.221,114.906 277,112.5C 279.733,109.938 282.233,107.271 284.5,104.5 Z"
       id="path11" />
  </g>
  <g
     id="g12">
    <path
       style="opacity:1"
       fill="#f8fcff"
       d="M 254.5,115.5 C 256.017,115.511 257.184,116.177 258,117.5C 258.168,128.182 258.668,138.849 259.5,149.5C 267.409,153.339 269.576,159.339 266,167.5C 258.181,175.759 250.847,175.425 244,166.5C 241.666,158.908 243.832,153.242 250.5,149.5C 251.167,138.833 251.833,128.167 252.5,117.5C 253.522,117.145 254.189,116.478 254.5,115.5 Z"
       id="path12" />
  </g>
  <g
     id="g13">
    <path
       style="opacity:1"
       fill="#f5fbff"
       d="M 213.5,118.5 C 217.168,119.556 220.835,120.722 224.5,122C 227.388,125.172 226.722,127.339 222.5,128.5C 218.26,127.558 214.927,125.391 212.5,122C 212.989,120.862 213.322,119.695 213.5,118.5 Z"
       id="path13" />
  </g>
  <g
     id="g14">
    <path
       style="opacity:1"
       fill="#f6fbff"
       d="M 292.5,118.5 C 296.509,118.014 298.342,119.68 298,123.5C 294.469,126.788 290.302,128.288 285.5,128C 284.446,126.612 284.28,125.112 285,123.5C 287.479,121.686 289.979,120.019 292.5,118.5 Z"
       id="path14" />
  </g>
  <g
     id="g15">
    <path
       style="opacity:1"
       fill="#f7fcff"
       d="M 210.5,135.5 C 214.514,135.334 218.514,135.501 222.5,136C 223.935,138.267 223.602,140.267 221.5,142C 218.5,142.667 215.5,142.667 212.5,142C 208.381,140.641 207.715,138.474 210.5,135.5 Z"
       id="path15" />
  </g>
  <g
     id="g16">
    <path
       style="opacity:1"
       fill="#f8fcff"
       d="M 287.5,135.5 C 291.846,135.334 296.179,135.501 300.5,136C 301.554,137.388 301.72,138.888 301,140.5C 297.107,142.28 293.107,142.613 289,141.5C 286.41,139.995 285.91,137.995 287.5,135.5 Z"
       id="path16" />
  </g>
  <g
     id="g17">
    <path
       style="opacity:1"
       fill="#f8fcff"
       d="M 285.5,148.5 C 289.313,149.16 292.979,150.326 296.5,152C 299.326,154.864 298.826,157.031 295,158.5C 292.005,157.724 289.172,156.557 286.5,155C 284.316,153.102 283.983,150.936 285.5,148.5 Z"
       id="path17" />
  </g>
  <g
     id="g18">
    <path
       style="opacity:1"
       fill="#f6fbff"
       d="M 221.5,148.5 C 225,148.495 226.5,150.162 226,153.5C 222.19,156.517 218.023,157.85 213.5,157.5C 212.386,156.277 212.219,154.944 213,153.5C 215.682,151.415 218.516,149.748 221.5,148.5 Z"
       id="path18" />
  </g>
  <g
     id="g19">
    <path
       style="opacity:1"
       fill="#41b8ff"
       d="M 252.5,155.5 C 258.989,154.632 261.489,157.299 260,163.5C 256.667,167.5 253.333,167.5 250,163.5C 249.018,160.225 249.851,157.559 252.5,155.5 Z"
       id="path19" />
  </g>
  <g
     id="g20">
    <path
       style="opacity:1"
       fill="#38b6ff"
       d="M 260.5,214.5 C 260.5,217.5 260.5,220.5 260.5,223.5C 256.833,223.5 253.167,223.5 249.5,223.5C 249.5,220.5 249.5,217.5 249.5,214.5C 253.167,214.5 256.833,214.5 260.5,214.5 Z"
       id="path20" />
  </g>
  <g
     id="g24">
    <path
       style="opacity:1"
       fill="#38b6ff"
       d="M 227.5,231.5 C 246.167,231.5 264.833,231.5 283.5,231.5C 283.5,235.167 283.5,238.833 283.5,242.5C 264.833,242.5 246.167,242.5 227.5,242.5C 227.5,238.833 227.5,235.167 227.5,231.5 Z"
       id="path24" />
  </g>
  <g
     id="g26">
    <path
       style="opacity:1"
       fill="#fafdff"
       d="M 184.5,328.5 C 167.833,328.5 151.167,328.5 134.5,328.5C 134.5,331.833 134.5,335.167 134.5,338.5C 134.389,339.117 134.056,339.617 133.5,340C 125.92,340.813 118.42,340.647 111,339.5C 110.333,307.833 110.333,276.167 111,244.5C 118.775,243.186 126.608,243.186 134.5,244.5C 135.417,247.758 135.751,251.091 135.5,254.5C 152.503,254.333 169.503,254.5 186.5,255C 190.5,257 190.5,259 186.5,261C 169.503,261.5 152.503,261.667 135.5,261.5C 135.5,281.833 135.5,302.167 135.5,322.5C 152.837,322.333 170.17,322.5 187.5,323C 190.158,326.514 189.158,328.347 184.5,328.5 Z"
       id="path26" />
  </g>
  <g
     id="g27">
    <path
       style="opacity:1"
       fill="#f6fbff"
       d="M 355.5,322.5 C 362.167,322.5 368.833,322.5 375.5,322.5C 375.83,301.993 375.497,281.66 374.5,261.5C 357.153,261.511 339.82,261.011 322.5,260C 321.14,258.062 321.473,256.396 323.5,255C 340.83,254.5 358.163,254.333 375.5,254.5C 375.211,250.894 375.544,247.394 376.5,244C 384.413,243.186 392.246,243.353 400,244.5C 400.667,275.833 400.667,307.167 400,338.5C 399.5,339 399,339.5 398.5,340C 391.144,340.831 383.811,340.665 376.5,339.5C 375.574,335.906 375.241,332.24 375.5,328.5C 357.83,328.667 340.164,328.5 322.5,328C 321.167,326.333 321.167,324.667 322.5,323C 333.495,322.5 344.495,322.333 355.5,322.5 Z"
       id="path27" />
  </g>
  <g
     id="g28">
    <path
       style="opacity:1"
       fill="#3db7ff"
       d="M 116.5,249.5 C 120.5,249.5 124.5,249.5 128.5,249.5C 128.5,277.5 128.5,305.5 128.5,333.5C 124.5,333.5 120.5,333.5 116.5,333.5C 116.5,305.5 116.5,277.5 116.5,249.5 Z"
       id="path28" />
  </g>
  <g
     id="g29">
    <path
       style="opacity:1"
       fill="#39b6ff"
       d="M 206.5,249.5 C 239.587,249.014 272.587,249.514 305.5,251C 306,251.5 306.5,252 307,252.5C 307.167,265.5 307.333,278.5 307.5,291.5C 307.65,305.257 307.15,318.924 306,332.5C 272.233,333.829 238.4,333.829 204.5,332.5C 203.846,330.885 203.346,329.218 203,327.5C 202.333,303.167 202.333,278.833 203,254.5C 203.257,252.093 204.424,250.427 206.5,249.5 Z"
       id="path29" />
  </g>
  <g
     id="g30">
    <path
       style="opacity:1"
       fill="#38b6ff"
       d="M 382.5,249.5 C 386.167,249.5 389.833,249.5 393.5,249.5C 393.5,277.5 393.5,305.5 393.5,333.5C 389.833,333.5 386.167,333.5 382.5,333.5C 382.5,305.5 382.5,277.5 382.5,249.5 Z"
       id="path30" />
  </g>
</svg>
