<?xml version="1.0" encoding="UTF-8" standalone="no"?>
<svg
   version="1.1"
   width="512px"
   height="512px"
   style="shape-rendering:geometricPrecision; text-rendering:geometricPrecision; image-rendering:optimizeQuality; fill-rule:evenodd; clip-rule:evenodd"
   id="svg21"
   sodipodi:docname="2.svg"
   inkscape:version="1.3.2 (091e20e, 2023-11-25, custom)"
   xmlns:inkscape="http://www.inkscape.org/namespaces/inkscape"
   xmlns:sodipodi="http://sodipodi.sourceforge.net/DTD/sodipodi-0.dtd"
   xmlns="http://www.w3.org/2000/svg"
   xmlns:svg="http://www.w3.org/2000/svg">
  <defs
     id="defs21" />
  <sodipodi:namedview
     id="namedview21"
     pagecolor="#ffffff"
     bordercolor="#000000"
     borderopacity="0.25"
     inkscape:showpageshadow="2"
     inkscape:pageopacity="0.0"
     inkscape:pagecheckerboard="0"
     inkscape:deskcolor="#d1d1d1"
     inkscape:zoom="1.1228082"
     inkscape:cx="91.734276"
     inkscape:cy="170.5545"
     inkscape:window-width="1920"
     inkscape:window-height="1009"
     inkscape:window-x="1912"
     inkscape:window-y="-8"
     inkscape:window-maximized="1"
     inkscape:current-layer="svg21" />
  <g
     id="g2">
    <path
       style="opacity:1"
       fill="#0597b2"
       d="M 231.5,9.5 C 320.382,3.85008 387.549,38.8501 433,114.5C 461.298,168.189 464.965,223.523 444,280.5C 417.706,346.626 378.872,404.126 327.5,453C 305.705,472.401 281.705,488.567 255.5,501.5C 232.331,490.421 210.998,476.587 191.5,460C 127.627,402.737 83.1266,332.904 58,250.5C 44.7063,173.041 67.2063,108.208 125.5,56C 156.387,30.3905 191.72,14.8905 231.5,9.5 Z"
       id="path2" />
  </g>
  <g
     id="g3">
    <path
       style="opacity:1"
       fill="#fbfdfd"
       d="M 377.5,298.5 C 378.832,234.665 378.832,170.665 377.5,106.5C 376.893,106.624 376.56,106.957 376.5,107.5C 372.55,110.308 368.217,112.308 363.5,113.5C 363.18,110.102 363.513,106.768 364.5,103.5C 369.119,101.942 372.952,99.2757 376,95.5C 377.422,92.9699 377.755,90.3033 377,87.5C 372.329,82.498 366.829,78.6646 360.5,76C 336.268,67.3434 311.268,62.3434 285.5,61C 264.167,60.3333 242.833,60.3333 221.5,61C 203.045,62.491 185.045,66.1576 167.5,72C 165.004,73.0804 162.67,74.4138 160.5,76C 158.789,77.1332 158.289,78.6332 159,80.5C 162.968,83.9018 167.468,86.4018 172.5,88C 189.489,92.9427 206.823,95.9427 224.5,97C 244.164,97.5 263.831,97.6666 283.5,97.5C 283.777,100.448 283.444,103.281 282.5,106C 262.167,106.667 241.833,106.667 221.5,106C 200.496,104.665 180.163,100.331 160.5,93C 153.234,89.897 149.234,84.397 148.5,76.5C 141.53,79.4811 136.196,84.1477 132.5,90.5C 134.941,96.1088 138.941,100.275 144.5,103C 161.692,110.799 179.692,115.799 198.5,118C 226.742,121.135 255.075,122.302 283.5,121.5C 283.5,124.5 283.5,127.5 283.5,130.5C 241.849,133.156 200.849,129.322 160.5,119C 150.633,116.315 141.466,112.149 133,106.5C 132.333,173.833 132.333,241.167 133,308.5C 141.394,316.45 151.227,321.95 162.5,325C 181.814,330.386 201.481,333.719 221.5,335C 242.164,335.5 262.831,335.667 283.5,335.5C 283.5,338.5 283.5,341.5 283.5,344.5C 243.005,347.285 203.005,344.118 163.5,335C 148.995,331.667 136.495,324.834 126,314.5C 125.333,313.167 124.667,311.833 124,310.5C 123.333,235.5 123.333,160.5 124,85.5C 129.265,77.4356 136.431,71.6022 145.5,68C 170.58,58.3741 196.58,53.0408 223.5,52C 263.612,49.0589 303.279,51.8922 342.5,60.5C 354.605,63.1442 365.938,67.6442 376.5,74C 380.369,77.5338 383.869,81.3672 387,85.5C 387.667,156.833 387.667,228.167 387,299.5C 388.051,310.77 383.551,318.937 373.5,324C 370.5,325.5 367.5,327 364.5,328.5C 363.167,325.167 363.167,321.833 364.5,318.5C 368.747,316.418 372.581,313.751 376,310.5C 377.354,306.637 377.854,302.637 377.5,298.5 Z"
       id="path3" />
  </g>
  <g
     id="g4">
    <path
       style="opacity:1"
       fill="#fcfefe"
       d="M 302.5,104.5 C 316.657,105.496 330.99,105.829 345.5,105.5C 345.5,98.5 345.5,91.5 345.5,84.5C 347.824,80.8865 350.657,80.5532 354,83.5C 354.667,172.5 354.667,261.5 354,350.5C 351.253,353.034 348.587,353.034 346,350.5C 345.5,342.507 345.334,334.507 345.5,326.5C 331.167,326.5 316.833,326.5 302.5,326.5C 302.666,334.174 302.5,341.841 302,349.5C 299.679,352.917 297.012,353.25 294,350.5C 293.333,261.5 293.333,172.5 294,83.5C 296.587,80.9659 299.253,80.9659 302,83.5C 302.5,90.4921 302.666,97.4921 302.5,104.5 Z"
       id="path4" />
  </g>
  <g
     id="g6">
    <path
       style="opacity:1"
       fill="#0097b2"
       d="M 344.5,114.5 C 344.5,122.833 344.5,131.167 344.5,139.5C 330.5,139.5 316.5,139.5 302.5,139.5C 302.5,131.167 302.5,122.833 302.5,114.5C 316.5,114.5 330.5,114.5 344.5,114.5 Z"
       id="path6" />
  </g>
  <g
     id="g8">
    <path
       style="opacity:1"
       fill="#f1f9fa"
       d="M 156.5,140.5 C 158.827,140.247 160.827,140.914 162.5,142.5C 163.666,159.824 163.833,177.157 163,194.5C 160,197.167 157,197.167 154,194.5C 153.167,177.157 153.334,159.824 154.5,142.5C 155.522,142.145 156.189,141.478 156.5,140.5 Z"
       id="path8" />
  </g>
  <g
     id="g9">
    <path
       style="opacity:1"
       fill="#fafdfd"
       d="M 220.5,149.5 C 222.144,149.286 223.644,149.62 225,150.5C 229.174,162.515 234.174,174.181 240,185.5C 247,196.5 254,207.5 261,218.5C 270.504,234.549 271.838,251.216 265,268.5C 251.899,291.627 232.399,299.794 206.5,293C 182.695,282.564 172.529,264.398 176,238.5C 177.268,233.363 178.934,228.363 181,223.5C 189.415,209 198.082,194.667 207,180.5C 211.615,170.133 216.115,159.8 220.5,149.5 Z"
       id="path9" />
  </g>
  <g
     id="g10">
    <path
       style="opacity:1"
       fill="#1099b3"
       d="M 302.5,149.5 C 316.833,149.5 331.167,149.5 345.5,149.5C 345.5,158.167 345.5,166.833 345.5,175.5C 331.167,175.5 316.833,175.5 302.5,175.5C 302.5,166.833 302.5,158.167 302.5,149.5 Z"
       id="path10" />
  </g>
  <g
     id="g11">
    <path
       style="opacity:1"
       fill="#0898b2"
       d="M 221.5,170.5 C 232.455,190.4 243.955,210.066 256,229.5C 265.453,255.505 257.619,274.005 232.5,285C 211.586,289.127 196.42,281.627 187,262.5C 183.474,251.722 183.807,241.055 188,230.5C 195.164,217.501 202.831,204.834 211,192.5C 214.784,185.266 218.284,177.933 221.5,170.5 Z"
       id="path11" />
  </g>
  <g
     id="g12">
    <path
       style="opacity:1"
       fill="#0097b2"
       d="M 344.5,185.5 C 344.5,193.833 344.5,202.167 344.5,210.5C 330.5,210.5 316.5,210.5 302.5,210.5C 302.5,202.167 302.5,193.833 302.5,185.5C 316.5,185.5 330.5,185.5 344.5,185.5 Z"
       id="path12" />
  </g>
  <g
     id="g13">
    <path
       style="opacity:1"
       fill="#f0f9fa"
       d="M 156.5,206.5 C 159.325,206.081 161.491,207.081 163,209.5C 163.667,213.5 163.667,217.5 163,221.5C 160,226.833 157,226.833 154,221.5C 153.333,217.5 153.333,213.5 154,209.5C 155.045,208.627 155.878,207.627 156.5,206.5 Z"
       id="path13" />
  </g>
  <g
     id="g15">
    <path
       style="opacity:1"
       fill="#0b98b2"
       d="M 302.5,220.5 C 316.833,220.5 331.167,220.5 345.5,220.5C 345.5,229.167 345.5,237.833 345.5,246.5C 331.167,246.5 316.833,246.5 302.5,246.5C 302.5,237.833 302.5,229.167 302.5,220.5 Z"
       id="path15" />
  </g>
  <g
     id="g16">
    <path
       style="opacity:1"
       fill="#f9fcfd"
       d="M 200.5,231.5 C 204.198,230.68 206.531,232.013 207.5,235.5C 205.766,239.701 205.266,244.035 206,248.5C 207.182,252.833 209.015,256.833 211.5,260.5C 208.323,266.983 204.823,266.983 201,260.5C 195.346,250.755 195.18,241.088 200.5,231.5 Z"
       id="path16" />
  </g>
  <g
     id="g19">
    <path
       style="opacity:1"
       fill="#0097b2"
       d="M 302.5,256.5 C 316.5,256.5 330.5,256.5 344.5,256.5C 344.5,264.833 344.5,273.167 344.5,281.5C 330.5,281.5 316.5,281.5 302.5,281.5C 302.5,273.167 302.5,264.833 302.5,256.5 Z"
       id="path19" />
  </g>
  <g
     id="g20">
    <path
       style="opacity:1"
       fill="#0097b2"
       d="M 344.5,291.5 C 344.5,299.833 344.5,308.167 344.5,316.5C 330.5,316.5 316.5,316.5 302.5,316.5C 302.5,308.167 302.5,299.833 302.5,291.5C 316.5,291.5 330.5,291.5 344.5,291.5 Z"
       id="path20" />
  </g>
</svg>
